<svg width="721" height="721" viewBox="0 0 721 721" fill="none" xmlns="http://www.w3.org/2000/svg">
<rect width="720" height="720" fill="url(#paint0_linear)"/>
<circle cx="360.411" cy="360.411" r="244.558" transform="rotate(-45 360.411 360.411)" stroke="white" stroke-width="20"/>
<circle cx="360.411" cy="360.411" r="169.706" transform="rotate(-45 360.411 360.411)" stroke="white" stroke-width="20"/>
<circle cx="360.411" cy="360.411" r="104.281" transform="rotate(-45 360.411 360.411)" stroke="white" stroke-width="20"/>
<path d="M401.711 345.422L379.09 362.677L376.201 364.88L377.404 368.308L386.824 395.154L363.423 378.972L360.435 376.905L357.547 379.108L334.925 396.363L343.084 369.107L344.126 365.627L341.138 363.561L317.738 347.378L346.181 346.716L349.813 346.631L350.855 343.151L359.014 315.895L368.434 342.741L369.636 346.169L373.268 346.085L401.711 345.422Z" stroke="black" stroke-width="10"/>
<circle cx="489.5" cy="470.5" r="13.5" fill="#333333"/>
<circle cx="359.5" cy="528.5" r="13.5" fill="#333333"/>
<path d="M245.5 470.5C245.5 477.956 239.456 484 232 484C224.544 484 218.5 477.956 218.5 470.5C218.5 463.044 224.544 457 232 457C239.456 457 245.5 463.044 245.5 470.5Z" fill="#333333"/>
<circle cx="489.5" cy="254.5" r="13.5" fill="#333333"/>
<path d="M373 197C373 204.456 366.956 210.5 359.5 210.5C352.044 210.5 346 204.456 346 197C346 189.544 352.044 183.5 359.5 183.5C366.956 183.5 373 189.544 373 197Z" fill="#333333"/>
<path d="M245 254.5C245 261.956 238.956 268 231.5 268C224.044 268 218 261.956 218 254.5C218 247.044 224.044 241 231.5 241C238.956 241 245 247.044 245 254.5Z" fill="#333333"/>
<defs>
<linearGradient id="paint0_linear" x1="0" y1="0" x2="720" y2="720" gradientUnits="userSpaceOnUse">
<stop stop-color="#E55D87"/>
<stop offset="1" stop-color="#5FC3E4"/>
</linearGradient>
</defs>
</svg>
